<svg width="32" height="31" viewBox="0 0 32 31" fill="none" xmlns="http://www.w3.org/2000/svg">
<path d="M18.1826 15.8037L18.504 15.0868C19.9708 15.1033 21.1657 15.3258 22.0886 15.7543C23.028 16.1828 23.712 16.7596 24.1405 17.4848C24.5854 18.2099 24.8079 19.0257 24.8079 19.9322C24.8079 20.921 24.569 21.7945 24.091 22.5526C23.6296 23.3107 22.9456 23.9123 22.0392 24.3572C21.1327 24.7857 20.0038 25 18.6523 25H6.29174L7.75029 15.4823L6.29174 6.45909H18.2074C19.9214 6.45909 21.2398 6.86287 22.1628 7.67043C23.1022 8.46151 23.5719 9.55748 23.5719 10.9584C23.5719 11.7 23.3906 12.4251 23.028 13.1338C22.6819 13.826 22.1133 14.4193 21.3222 14.9137C20.5476 15.3917 19.5011 15.6883 18.1826 15.8037ZM9.57966 24.0853L8.31888 22.3796H18.2815C19.3033 22.3796 20.0944 22.1488 20.6548 21.6874C21.2316 21.2094 21.52 20.5337 21.52 19.6602C21.52 18.7373 21.1822 18.0204 20.5064 17.5095C19.8472 16.9986 18.8666 16.7431 17.5646 16.7431H9.53022V14.2216H17.2432C18.1167 14.2216 18.8419 13.9826 19.4187 13.5046C19.9955 13.0102 20.2839 12.3098 20.2839 11.4033C20.2839 10.7276 20.045 10.1755 19.567 9.74701C19.0891 9.30203 18.3969 9.07954 17.4904 9.07954H8.31888L9.57966 7.37378L10.8899 15.4823L9.57966 24.0853Z" fill="#FCFCFC"/>
<path fill-rule="evenodd" clip-rule="evenodd" d="M17.053 17.823C23.931 14.6469 28.5597 11.2785 27.5709 9.14008C27.1673 8.26718 25.912 7.84477 24.0997 7.86657C26.8005 7.49549 28.7126 7.80701 29.2143 8.89196C30.2384 11.1067 24.9972 15.7057 17.5078 19.1642C10.0185 22.6226 3.11691 23.6308 2.09281 21.4161C1.53342 20.2063 2.84334 18.2852 5.36791 16.2271C3.77156 17.88 3.07705 19.3966 3.54689 20.4127C3.59798 20.5232 3.66147 20.6238 3.73691 20.7149C3.78149 20.7901 3.84554 20.855 3.92637 20.9035C5.565 22.2573 10.7965 20.7121 17.053 17.823Z" fill="url(#paint0_linear_222_449)"/>
<defs>
<linearGradient id="paint0_linear_222_449" x1="17.5078" y1="19.1642" x2="14.3218" y2="12.2648" gradientUnits="userSpaceOnUse">
<stop stop-color="#7E6AB7"/>
<stop offset="1" stop-color="#B49AFF"/>
</linearGradient>
</defs>
</svg>
