<svg width="131" height="132" viewBox="0 0 131 132" fill="none" xmlns="http://www.w3.org/2000/svg">
<path d="M75.7519 65.615L77.1298 62.5413C83.4186 62.6119 88.5416 63.5659 92.4986 65.4031C96.5263 67.2402 99.4587 69.7134 101.296 72.8225C103.204 75.9316 104.158 79.4293 104.158 83.3157C104.158 87.5553 103.133 91.3004 101.084 94.5508C99.1054 97.8012 96.173 100.38 92.2866 102.288C88.4003 104.125 83.56 105.044 77.7657 105.044H24.7698L31.0234 64.2371L24.7698 25.5501H75.8579C83.2067 25.5501 88.8596 27.2813 92.8166 30.7437C96.8443 34.1355 98.8581 38.8344 98.8581 44.8406C98.8581 48.0204 98.0808 51.1295 96.5263 54.1679C95.0424 57.1357 92.6046 59.6795 89.2129 61.7993C85.8918 63.8485 81.4048 65.1204 75.7519 65.615ZM38.8668 101.122L33.4612 93.8089H76.1759C80.5569 93.8089 83.9486 92.8196 86.3511 90.8411C88.8242 88.7919 90.0608 85.8948 90.0608 82.1498C90.0608 78.1927 88.6122 75.119 85.7151 72.9285C82.8887 70.738 78.6843 69.6427 73.1021 69.6427H38.6548V58.8316H71.7242C75.4693 58.8316 78.5784 57.807 81.0515 55.7578C83.5246 53.638 84.7612 50.6349 84.7612 46.7485C84.7612 43.8514 83.7366 41.4842 81.6874 39.647C79.6383 37.7392 76.6705 36.7853 72.7841 36.7853H33.4612L38.8668 29.4718L44.4843 64.2371L38.8668 101.122Z" fill="#FCFCFC"/>
<path fill-rule="evenodd" clip-rule="evenodd" d="M70.9077 76.4591C100.397 62.8415 120.243 48.3996 116.003 39.2313C114.273 35.4887 108.89 33.6777 101.12 33.7712C112.7 32.1802 120.898 33.5158 123.049 38.1675C127.44 47.6632 104.968 67.3815 72.8576 82.2095C40.747 97.0375 11.1567 101.36 6.76588 91.8644C4.36739 86.6774 9.98429 78.44 20.8093 69.6157C13.9642 76.7027 10.986 83.2057 13.0006 87.5625C13.2193 88.0356 13.4912 88.4666 13.8141 88.8567C14.0055 89.1803 14.2808 89.4591 14.6284 89.6676C21.655 95.4708 44.0842 88.8456 70.9077 76.4591Z" fill="url(#paint0_linear_222_450)"/>
<defs>
<linearGradient id="paint0_linear_222_450" x1="72.8577" y1="82.2096" x2="59.1975" y2="52.628" gradientUnits="userSpaceOnUse">
<stop stop-color="#7E6AB7"/>
<stop offset="1" stop-color="#B49AFF"/>
</linearGradient>
</defs>
</svg>
