<svg width="95" height="21" viewBox="0 0 95 21" fill="none" xmlns="http://www.w3.org/2000/svg">
<path d="M24 20.24C24.08 20.24 24.16 20.24 24.24 20.24V20.44C23.8667 20.4933 23.4467 20.52 22.98 20.52C22.5267 20.52 21.96 20.42 21.28 20.22C20.6133 20.02 20.0067 19.6467 19.46 19.1C18.34 17.98 17.66 16.5267 17.42 14.74L16.2 5.84L12.04 15.24C11.6667 16.0533 11.44 16.7333 11.36 17.28H11.16L5.98 6.02L5.1 15.96C5.07333 16.1867 5.14 16.3867 5.3 16.56C5.47333 16.7333 5.66 16.82 5.86 16.82H6.18V17H2.3V16.8H2.62C2.98 16.8 3.29333 16.6933 3.56 16.48C3.84 16.2533 4.01333 15.96 4.08 15.6L5.34 4.68C4.16667 2.37333 2.76 1.22 1.12 1.22C0.973333 1.22 0.82 1.22667 0.66 1.24V1.04C1.02 0.946666 1.31333 0.899999 1.54 0.899999C1.76667 0.899999 2.01333 0.913332 2.28 0.939999C2.54667 0.953333 2.86 1.01333 3.22 1.12C3.58 1.22667 3.92 1.38667 4.24 1.6C4.56 1.8 4.84 2.01333 5.08 2.24C5.32 2.45333 5.54667 2.69333 5.76 2.96C6.12 3.44 6.40667 3.9 6.62 4.34L11.44 14.78L16.82 2.72H17L18.86 14.56C19.14 16.4267 19.74 17.84 20.66 18.8C21.5933 19.76 22.7067 20.24 24 20.24Z" fill="#FFC773"/>
<path d="M23.5533 4.74C24.9799 3.39333 26.8266 2.72 29.0933 2.72C31.3733 2.72 33.2266 3.39333 34.6533 4.74C36.0799 6.07333 36.7933 7.82667 36.7933 10C36.7933 12.1733 36.0799 13.9333 34.6533 15.28C33.2266 16.6133 31.3733 17.28 29.0933 17.28C26.8266 17.28 24.9799 16.6133 23.5533 15.28C22.1266 13.9333 21.4133 12.1733 21.4133 10C21.4133 7.82667 22.1266 6.07333 23.5533 4.74ZM24.6333 14.84C25.7666 16.0667 27.2533 16.68 29.0933 16.68C30.9333 16.68 32.4133 16.0667 33.5333 14.84C34.6666 13.6133 35.2333 12 35.2333 10C35.2333 8 34.6666 6.38667 33.5333 5.16C32.4133 3.93333 30.9333 3.32 29.0933 3.32C27.2533 3.32 25.7666 3.93333 24.6333 5.16C23.5133 6.38667 22.9533 8 22.9533 10C22.9533 12 23.5133 13.6133 24.6333 14.84ZM53.1264 3.2C52.7931 3.2 52.5064 3.32 52.2664 3.56C52.0264 3.78667 51.8997 4.06667 51.8864 4.4V14.72C51.8864 15.4933 51.9331 16.2267 52.0264 16.92L52.0664 17.28H51.8864L40.9864 5.64V15.6C40.9864 15.9333 41.1064 16.22 41.3464 16.46C41.5864 16.6867 41.8731 16.8 42.2064 16.8H42.5864V17H38.4664V16.8H38.8464C39.1797 16.8 39.4664 16.6867 39.7064 16.46C39.9464 16.22 40.0664 15.9267 40.0664 15.58V5.2C40.0664 4.38667 40.0197 3.66 39.9264 3.02L39.8864 2.7H40.0864L50.9864 14.34V4.42C50.9731 4.07333 50.8464 3.78667 50.6064 3.56C50.3664 3.32 50.0797 3.2 49.7464 3.2H49.3664V3H53.4864V3.2H53.1264ZM59.5075 3.62H58.2275V15.54C58.2275 15.8867 58.3475 16.1867 58.5875 16.44C58.8408 16.68 59.1475 16.8 59.5075 16.8H59.7475L59.7675 17H55.3875V16.8H55.6475C55.9942 16.8 56.2875 16.68 56.5275 16.44C56.7808 16.2 56.9142 15.9067 56.9275 15.56V4.46C56.9142 4.11333 56.7808 3.82 56.5275 3.58C56.2875 3.32667 55.9942 3.2 55.6475 3.2H55.3875V3H60.7875C62.0008 3 62.9542 3.34 63.6475 4.02C64.3408 4.68667 64.6875 5.56 64.6875 6.64C64.6875 7.70667 64.3542 8.63333 63.6875 9.42C63.0342 10.1933 62.2342 10.58 61.2875 10.58C61.4875 10.6733 61.7208 10.86 61.9875 11.14C62.2675 11.4067 62.5142 11.6867 62.7275 11.98C63.8742 13.62 64.6208 14.6333 64.9675 15.02C65.3142 15.3933 65.5608 15.6533 65.7075 15.8C65.8542 15.9333 66.0142 16.0667 66.1875 16.2C66.3608 16.3333 66.5342 16.44 66.7075 16.52C67.0942 16.7067 67.5075 16.8 67.9475 16.8V17H66.8475C66.2742 17 65.7408 16.9 65.2475 16.7C64.7542 16.4867 64.3808 16.2733 64.1275 16.06C63.8875 15.8333 63.6742 15.62 63.4875 15.42C63.3142 15.2067 62.8208 14.5133 62.0075 13.34C61.1942 12.1667 60.7208 11.5 60.5875 11.34C60.4542 11.1667 60.3142 11 60.1675 10.84C59.7408 10.3867 59.3142 10.16 58.8875 10.16V9.96C58.9942 9.97333 59.1342 9.98 59.3075 9.98C59.4808 9.98 59.6942 9.97333 59.9475 9.96C61.6008 9.92 62.6408 9.22667 63.0675 7.88C63.1475 7.61333 63.1875 7.36667 63.1875 7.14C63.1875 6.9 63.1875 6.74667 63.1875 6.68C63.1608 5.78667 62.9275 5.06667 62.4875 4.52C62.0475 3.97333 61.4542 3.68 60.7075 3.64C60.3875 3.62667 59.9875 3.62 59.5075 3.62ZM69.7642 4.74C71.1909 3.39333 73.0376 2.72 75.3042 2.72C77.5842 2.72 79.4376 3.39333 80.8642 4.74C82.2909 6.07333 83.0042 7.82667 83.0042 10C83.0042 12.1733 82.2909 13.9333 80.8642 15.28C79.4376 16.6133 77.5842 17.28 75.3042 17.28C73.0376 17.28 71.1909 16.6133 69.7642 15.28C68.3376 13.9333 67.6242 12.1733 67.6242 10C67.6242 7.82667 68.3376 6.07333 69.7642 4.74ZM70.8442 14.84C71.9776 16.0667 73.4642 16.68 75.3042 16.68C77.1442 16.68 78.6242 16.0667 79.7442 14.84C80.8776 13.6133 81.4442 12 81.4442 10C81.4442 8 80.8776 6.38667 79.7442 5.16C78.6242 3.93333 77.1442 3.32 75.3042 3.32C73.4642 3.32 71.9776 3.93333 70.8442 5.16C69.7242 6.38667 69.1642 8 69.1642 10C69.1642 12 69.7242 13.6133 70.8442 14.84ZM84.8467 16.8C85.1934 16.8 85.4867 16.68 85.7267 16.44C85.9801 16.1867 86.1134 15.8867 86.1267 15.54V4.34C86.1267 4.02 86.0001 3.75333 85.7467 3.54C85.4934 3.31333 85.1934 3.2 84.8467 3.2H84.6067L84.5867 3H90.4467C90.8601 3 91.3067 2.96 91.7867 2.88C92.2801 2.8 92.6267 2.72 92.8267 2.64V5.16H92.6267V4.8C92.6267 4.48 92.5134 4.20667 92.2867 3.98C92.0734 3.75333 91.8134 3.63333 91.5067 3.62H87.4267V9.8H90.8067C91.0734 9.78667 91.3001 9.68667 91.4867 9.5C91.6734 9.31333 91.7667 9.08 91.7667 8.8V8.52H91.9667V11.68H91.7667V11.38C91.7667 11.1133 91.6734 10.8867 91.4867 10.7C91.3134 10.5133 91.0934 10.4133 90.8267 10.4H87.4267V16.38H90.2867C91.2734 16.38 92.0267 16.16 92.5467 15.72C93.0667 15.28 93.5001 14.6267 93.8467 13.76H94.0467L92.8867 17H84.5867V16.8H84.8467Z" fill="white"/>
</svg>
