<svg width="26" height="30" viewBox="0 0 26 30" fill="none" xmlns="http://www.w3.org/2000/svg">
<path d="M14.2938 2.61067C16.3087 0.0126657 19.1099 0 19.1099 0C19.1099 0 19.5266 2.44257 17.5249 4.79554C15.3876 7.30799 12.9582 6.89687 12.9582 6.89687C12.9582 6.89687 12.502 4.92092 14.2938 2.61067ZM13.2145 8.60788C14.251 8.60788 16.1749 7.21396 18.679 7.21396C22.9893 7.21396 24.685 10.2145 24.685 10.2145C24.685 10.2145 21.3686 11.8733 21.3686 15.8983C21.3686 20.4389 25.5 22.0038 25.5 22.0038C25.5 22.0038 22.612 29.9559 18.7111 29.9559C16.9194 29.9559 15.5264 28.7748 13.6387 28.7748C11.7148 28.7748 9.80575 30 8.56234 30C5.00021 30.0001 0.5 22.4566 0.5 16.3929C0.5 10.4271 4.30913 7.29754 7.88194 7.29754C10.2046 7.29754 12.007 8.60788 13.2145 8.60788Z" fill="white"/>
</svg>
